<?xml version="1.0" encoding="UTF-8"?>
<svg width="80px" height="80px" viewBox="0 0 80 80" version="1.1" xmlns="http://www.w3.org/2000/svg" xmlns:xlink="http://www.w3.org/1999/xlink">
    <title>icon80/covered</title>
    <g id="icon80/covered" stroke="none" stroke-width="1" fill="none" fill-rule="evenodd">
        <path d="M28.4050808,58.8618018 C29.8687722,58.8618018 31.0558809,60.0491475 31.0558809,61.513802 C31.0558809,62.9773749 29.8686537,64.1646021 28.4050808,64.1646021 L28.4050808,64.1646021 L13.8754802,64.1646021 L13.707808,64.1593873 C12.321674,64.0729038 11.22468,62.9215467 11.22468,61.513802 C11.22468,60.0486659 12.4110703,58.8618018 13.8754802,58.8618018 L13.8754802,58.8618018 Z M68.2893624,58.8618018 C69.7537723,58.8618018 70.9401625,60.0486659 70.9401625,61.513802 C70.9401625,62.9778565 69.7536538,64.1646021 68.2893624,64.1646021 L68.2893624,64.1646021 L53.7609618,64.1646021 L53.5932456,64.1593857 C52.2067295,64.0728769 51.1089616,62.9211976 51.1089616,61.513802 C51.1089616,60.049029 52.2961888,58.8618018 53.7609618,58.8618018 L53.7609618,58.8618018 Z M23.0535843,14.7213267 C23.7374681,14.0987993 24.7737322,14.055935 25.5054266,14.6206237 L25.5054266,14.6206237 L25.6272164,14.7228644 L25.699112,14.7921309 L25.699112,14.7921309 L25.761028,14.8575515 C26.6786571,15.8784246 26.6786571,17.4242158 25.7620317,18.4439711 L25.7620317,18.4439711 L22.567548,21.9984644 L22.2902713,22.3149864 C19.6506693,25.4040467 18.1956004,29.3360729 18.1956004,33.4063209 L18.1956004,33.4063209 L18.1956004,41.8376865 L20.7735036,39.1738532 L20.9584349,38.9887058 C21.0815647,38.8694134 21.2044823,38.758315 21.3278055,38.6549034 L21.3278055,38.6549034 L21.8447267,38.2214434 L22.0626242,30.3626949 L22.072546,30.1993198 C22.1893686,28.9583825 23.2333093,27.9943206 24.4968006,27.9943206 C25.742152,27.9943206 26.7662363,28.9744039 26.8240331,30.21228 L26.8240331,30.21228 L26.8248008,39.3865568 L27.1561991,40.0433009 L27.4665143,40.6254773 L28.2317479,42.023837 L28.420288,42.3778596 C29.5181992,44.4667642 30.0180009,45.9335494 30.0180009,47.4283214 C30.0180009,49.7685299 29.0518876,52.4502708 27.0723817,55.4630476 L27.0723817,55.4630476 L26.8265015,55.8372734 L26.826,55.861 L13.299,55.861 L13.2996001,30.8167207 L13.3046416,30.4400262 C13.3952812,27.0547131 14.7052289,23.8101396 17.0008165,21.3064327 L17.0008165,21.3064327 L22.929646,14.8448367 Z M56.6594159,14.6206237 C57.4368405,14.0206412 58.5580842,14.1065164 59.2349486,14.8445664 L59.2349486,14.8445664 L65.1643968,21.3068369 L65.4153558,21.5880031 L65.6673073,21.8862445 C67.7299222,24.3976097 68.8652424,27.5523794 68.8652424,30.8167207 L68.8652424,30.8167207 L68.865,55.861 L55.338,55.861 L55.3383413,55.8374847 L55.092674,55.463372 L54.8402247,55.0720758 C53.0310065,52.2164196 52.1468417,49.6655717 52.1468417,47.4283214 C52.1468417,45.934675 52.6462052,44.4690213 53.7434188,42.3810225 L53.7434188,42.3810225 L54.1617758,41.604452 L54.6980557,40.6266107 L55.0087262,40.0434314 L55.1825285,39.7022469 L55.3400418,39.3862234 L55.3400418,30.3223207 L55.3423085,30.1623189 L55.3551688,30.0085956 C55.4887806,28.8908783 56.4771624,27.9943206 57.6680419,27.9943206 C58.9864676,27.9943206 60.0658364,29.0440364 60.1022127,30.3624901 L60.1022127,30.3624901 L60.3201158,38.2214434 L60.8370371,38.6549034 L61.0217949,38.8158493 C61.1448669,38.9270745 61.2678423,39.04624 61.3913389,39.1738532 L61.3913389,39.1738532 L63.9692421,41.8376865 L63.9692421,33.4063209 L63.9640627,32.9857827 C63.8640353,28.9259058 62.3182804,25.0285662 59.5977008,21.9989165 L59.5977008,21.9989165 L56.4028945,18.4440642 L56.2835708,18.3018328 C55.4880793,17.2847762 55.5278502,15.832072 56.4028108,14.8586692 L56.4028108,14.8586692 L56.4656051,14.7922706 L56.5331638,14.7269771 Z M54.2548334,21.8150903 C55.211531,22.7961564 55.9181699,23.9364797 56.3747502,25.1528295 C54.1397535,25.7108837 52.4572239,27.6792372 52.3441156,30.0714779 L52.3441156,30.0714779 L52.3401751,30.3023225 L52.33968,37.369114 L40.9997621,49 L29.82368,37.537114 L29.8248008,30.3223207 L29.8222675,30.1223225 L29.8071364,29.8957926 C29.5989916,27.5118257 27.8790161,25.6083133 25.6405814,25.1176288 C26.0954511,23.9145511 26.7976739,22.7867171 27.7451666,21.8150903 C31.3387743,18.131145 37.121038,18.0629238 40.7945824,21.6104266 L40.9997621,21.8150903 C44.6611737,18.0616366 50.5946114,18.0616366 54.2548334,21.8150903 Z" id="Combined-Shape" fill="#FF6200"></path>
    </g>
</svg>