<?xml version="1.0" encoding="UTF-8"?>
<svg width="80px" height="80px" viewBox="0 0 80 80" version="1.1" xmlns="http://www.w3.org/2000/svg" xmlns:xlink="http://www.w3.org/1999/xlink">
    <title>icon80/cut</title>
    <g id="icon80/cut" stroke="none" stroke-width="1" fill="none" fill-rule="evenodd">
        <path d="M63.1418,12.0008 C65.3488,12.0008 67.1378,13.7898 67.1378,15.9968 L67.1378,30.8608 C67.1378,33.0678 65.3488,34.8568 63.1418,34.8568 L42.5298,34.8568 L43.5917,25.8483 L43.9427,22.8683 L40.9627,22.5183 L40.6361074,22.4863741 C40.4175889,22.4691889 40.1980333,22.4603 39.9807,22.4603 C35.8380061,22.4603 32.334406,25.5022325 31.7278191,29.5782224 L31.6937,29.8343 L31.1018,34.8568 L25.4198,34.8568 C23.2128,34.8568 21.4238,33.0678 21.4238,30.8608 L21.4238,15.9968 C21.4238,13.7898 23.2128,12.0008 25.4198,12.0008 L63.1418,12.0008 Z M56.3019,15.8644 C53.1262313,15.8644 50.4076058,17.8224608 49.2867889,20.5968466 L49.2867889,20.5968466 L47.6535,20.597 L47.5368789,20.6037277 C47.0395402,20.6614928 46.6535,21.0841642 46.6535,21.597 C46.6535,22.1492847 47.1012153,22.597 47.6535,22.597 L47.6535,22.597 L48.7841322,22.5965207 C48.7542412,22.8697088 48.7389,23.147266 48.7389,23.4284 C48.7389,23.7702716 48.7615765,24.1068466 48.8055076,24.4367021 L48.8055076,24.4367021 L47.6535,24.4369 L47.5368789,24.4436277 C47.0395402,24.5013928 46.6535,24.9240642 46.6535,25.4369 C46.6535,25.9891847 47.1012153,26.4369 47.6535,26.4369 L47.6535,26.4369 L49.3607244,26.4368605 C50.5238079,29.1174531 53.1938106,30.9924 56.3019,30.9924 C57.8282054,30.9924 59.2904615,30.5373903 60.5311555,29.7003954 C60.988997,29.3915271 61.1097636,28.769986 60.8008954,28.3121445 C60.4920271,27.854303 59.870486,27.7335364 59.4126445,28.0424046 C58.4995788,28.6583755 57.4261307,28.9924 56.3019,28.9924 C54.3378588,28.9924 52.6116183,27.9744987 51.6217107,26.4373779 L51.6217107,26.4373779 L54.2575,26.4369 L54.3741211,26.4301723 C54.8714598,26.3724072 55.2575,25.9497358 55.2575,25.4369 C55.2575,24.8846153 54.8097847,24.4369 54.2575,24.4369 L54.2575,24.4369 L50.8300997,24.4371936 C50.7701961,24.1100342 50.7389,23.7728732 50.7389,23.4284 C50.7389,23.1458043 50.7599743,22.8681212 50.8006366,22.5968379 L50.8006366,22.5968379 L55.2805,22.597 L55.3971211,22.5902723 C55.8944598,22.5325072 56.2805,22.1098358 56.2805,21.597 C56.2805,21.0447153 55.8327847,20.597 55.2805,20.597 L55.2805,20.597 L51.5127162,20.5962198 C52.4816124,18.9609909 54.263859,17.8644 56.3019,17.8644 C57.4242792,17.8644 58.494215,18.196554 59.4069118,18.8102489 C59.8652247,19.1184173 60.4865805,18.9967011 60.7947489,18.5383882 C61.1029173,18.0800753 60.9812011,17.4587195 60.5228882,17.1505511 C59.2831457,16.3169516 57.8253847,15.8644 56.3019,15.8644 Z" id="Combined-Shape" fill="#FF6200"></path>
        <path d="M39.9807,25.4603 L40.1898852,25.4645593 L40.4008481,25.4770407 L40.4008481,25.4770407 L40.6127,25.4973 L38.7314348,41.4683 L40.2478,41.4063 L40.2438,41.4364 L44.5718,41.2594 L47.986032,41.0918 L47.9868,41.1204 L54.717,40.8461 L54.7215706,41.0666058 C54.7227579,43.8460487 52.5853004,46.1670029 49.815901,46.3961377 L49.59,46.4101 L38.859,46.8481 C38.550119,46.8607565 38.2462927,46.8469687 37.9497047,46.8087519 L36.9326134,55.4574709 C37.7889015,55.9031486 38.566709,56.5331513 39.2032228,57.340052 C41.6131001,60.3905295 41.091843,64.8172831 38.040048,67.2249228 C34.9895705,69.6348001 30.5628169,69.113543 28.1549888,66.0615095 C25.7457455,63.0105638 26.2672243,58.5852641 29.3185905,56.1756888 L29.3185905,56.1756888 L29.5243109,56.0192382 C30.2785309,55.4668697 31.1091571,55.0862344 31.9677996,54.8716106 L32.9128,46.8404 L24.6450559,47.2490832 C24.3356962,48.0903689 23.859498,48.8861616 23.2144381,49.5863255 C20.5796081,52.4448555 16.1264237,52.6268347 13.2691397,49.9918826 C10.4105685,47.3582856 10.2281808,42.9051174 12.8623367,40.0473188 C15.4962894,37.18847 19.949016,37.0069185 22.8086159,39.6402923 L22.8086159,39.6402923 L22.9993513,39.8227039 C23.714185,40.5320401 24.2461332,41.3601411 24.5927416,42.2461888 L31.8968,41.8854 L31.8947,41.8324 L31.8908,41.7463 L33.3904348,41.6863 L33.3927,41.7593 C33.3827,41.5599667 33.3807,41.3593 33.3914407,41.1570037 L33.4177,40.8523 L34.6727,30.1853 L34.7051307,29.9537765 C35.1269988,27.350478 37.3811571,25.4603 39.9807,25.4603 Z M36.8485118,59.1989052 C35.4675642,57.4482952 32.9279547,57.1488013 31.1775074,58.5303497 C29.426426,59.9131279 29.1272461,62.4519855 30.5098378,64.202831 C31.8914713,65.9541152 34.4306879,66.2531119 36.181131,64.8702622 C37.9324152,63.4886287 38.2314119,60.9494121 36.8485118,59.1989052 Z M20.6092799,41.7013444 C18.9658934,40.3443019 16.5294974,40.494516 15.0684381,42.0803255 C13.5572857,43.7197765 13.6619251,46.2746479 15.3023906,47.7860062 C16.9417361,49.2977904 19.4966168,49.1933853 21.0083174,47.5533397 C22.5194365,45.9131337 22.415469,43.3579229 20.7758745,41.8466381 L20.7758745,41.8466381 Z" id="Combined-Shape" fill="#FF6200"></path>
    </g>
</svg>