<?xml version="1.0" encoding="UTF-8"?>
<svg width="80px" height="80px" viewBox="0 0 80 80" version="1.1" xmlns="http://www.w3.org/2000/svg" xmlns:xlink="http://www.w3.org/1999/xlink">
    <title>icon80/flexibility</title>
    <g id="icon80/flexibility" stroke="none" stroke-width="1" fill="none" fill-rule="evenodd">
        <g id="Flexibility" transform="translate(11.000000, 16.000000)" fill="#FF6200" fill-rule="nonzero">
            <path d="M16.0133804,15.1067503 C18.4460635,15.1067503 20.7504232,15.6560939 22.8091879,16.6374892 L22.8097321,23.4545295 C21.0158664,21.8206895 18.6308902,20.8245505 16.0133804,20.8245505 C10.4379671,20.8245505 5.91758018,25.3441241 5.91758018,30.9192507 C5.91758018,36.4945207 10.4381104,41.0150509 16.0133804,41.0150509 C21.5886504,41.0150509 26.1091806,36.4945207 26.1091806,30.9192507 L26.1091806,30.9192507 L26.1094287,18.748887 C29.6019688,21.6493893 31.8258808,26.0246594 31.8258808,30.9192507 C31.8258808,39.653727 24.7470647,46.7328511 16.0133804,46.7328511 C7.27945405,46.7328511 0.199780047,39.6534851 0.199780047,30.9192507 C0.199780047,22.1866663 7.28000408,15.1067503 16.0133804,15.1067503 Z" id="Combined-Shape"></path>
            <g id="Group-8" transform="translate(25.400001, 0.433070)">
                <path d="M16.5216804,0.766710038 C25.2550567,0.766710038 32.3352808,7.84662602 32.3352808,16.5792104 L32.3352808,16.5792104 L32.3322072,16.8941755 C32.1767213,24.8545534 26.1401728,31.3726302 18.3878014,32.2838755 L18.3878014,32.2838755 L18.171,32.306 L18.171,26.54 L18.4244669,26.4959582 C23.0901283,25.6060489 26.6163806,21.5048243 26.6163806,16.5792104 C26.6163806,11.0039404 22.0969504,6.48451016 16.5216804,6.48451016 C10.9464104,6.48451016 6.42698016,11.0039404 6.42698016,16.5792104 L6.42698016,16.5792104 L6.42698016,30.4865107 L6.43303665,30.628879 C6.43320996,30.6309069 6.43338693,30.6329338 6.43356757,30.6349595 L0.563056788,31.1663586 C0.656921283,30.9590503 0.709180036,30.7288833 0.709180036,30.4865107 L0.709180036,30.4865107 L0.709,15.765 L0.789926193,14.9685352 L0.826614505,14.639569 C1.78729974,6.7700342 8.49935846,0.766710038 16.5216804,0.766710038 Z" id="Combined-Shape"></path>
            </g>
            <path d="M35.6382608,30.6553607 C35.1421608,30.2824607 35.1421608,29.5377607 35.6382608,29.1659607 L39.7566609,26.0705606 L43.373461,23.3513605 C43.988361,22.8893605 44.866161,23.3282605 44.866161,24.0971605 L44.866161,29.9106607 L44.866161,35.7241608 C44.866161,36.4930608 43.988361,36.9308608 43.373461,36.4688608 L39.7566609,33.7507608 L35.6382608,30.6553607 Z" id="Fill-9"></path>
        </g>
    </g>
</svg>