<?xml version="1.0" encoding="UTF-8"?>
<svg width="80px" height="80px" viewBox="0 0 80 80" version="1.1" xmlns="http://www.w3.org/2000/svg" xmlns:xlink="http://www.w3.org/1999/xlink">
    <title>icon80/funds</title>
    <g id="icon80/funds" stroke="none" stroke-width="1" fill="none" fill-rule="evenodd">
        <path d="M65.4149,42.649 C67.2368666,42.649 68.7149,44.1268208 68.7149,45.949 L68.7149,62.749 C68.7149,64.5711792 67.2368666,66.049 65.4149,66.049 C63.5923271,66.049 62.1149,64.5715729 62.1149,62.749 L62.1149,45.949 C62.1149,44.1264271 63.5923271,42.649 65.4149,42.649 Z M49.1281,43.849 C51.8843443,43.849 55.0279338,44.9813274 58.5488741,47.2929135 L58.9231564,47.5386393 L59.115,47.538 L59.115,63.649 L29.9201,63.649 C25.7889566,63.649 21.8089851,62.100403 18.7661693,59.3087111 L11.2921556,52.4516986 C10.2973826,51.5393584 10.2306398,49.9912323 11.1435454,48.9958986 C11.1971817,48.9372747 11.2533798,48.8815449 11.31416,48.826584 C12.579367,47.6900413 14.502833,47.6900413 15.7716926,48.8298761 L19.881403,52.5236158 C23.4595513,55.7399411 28.101663,57.519 32.9151,57.519 L42.0913146,57.519 L39.4187678,54.9396816 C39.2033515,54.7317798 38.9969961,54.5110674 38.7975411,54.2761538 L38.3645411,53.766176 L29.3887957,53.5165796 C27.7374076,53.4709871 26.4221,52.1186112 26.4221,50.466 C26.4221,48.9017551 27.653797,47.6156441 29.2096884,47.5433849 L29.3849749,47.5395709 L39.7731714,47.5410351 L40.2541798,47.3004748 L40.7823357,47.0252702 L42.7693747,45.9416878 L43.4766636,45.5687866 C45.7685603,44.3899042 47.425786,43.849 49.1281,43.849 Z M42.1389511,12.9994 C43.5135225,12.9994 44.5744478,14.1700976 44.4524929,15.5024939 L44.4331223,15.6568921 L43.2583536,18.8205731 C49.81327,22.4604059 54.7189535,34.7522256 54.9883335,42.0406749 C52.950032,41.2484064 50.9971877,40.849 49.1281,40.849 C46.7420356,40.849 44.6207168,41.5736502 41.7597874,43.0803197 L41.1858526,43.3874466 L39.3820573,44.3720766 L39.059,44.541 L29.3492489,44.54 L29.1042251,44.5454291 C27.2530165,44.6311829 25.6360479,45.5448288 24.6053322,46.916341 C24.2111681,45.5646878 24,44.1354117 24,42.6572907 C24,35.5759594 28.8477429,22.953863 35.4372944,18.9969933 L35.742653,18.8205731 L34.5668777,15.6568921 C34.3536156,14.3135501 35.3566657,13.0930991 36.7049962,13.004538 L36.8620555,12.9994 L42.1389511,12.9994 Z" id="Combined-Shape" fill="#FF6200"></path>
    </g>
</svg>