<?xml version="1.0" encoding="UTF-8"?>
<svg width="80px" height="80px" viewBox="0 0 80 80" version="1.1" xmlns="http://www.w3.org/2000/svg" xmlns:xlink="http://www.w3.org/1999/xlink">
    <title>icon80/international</title>
    <g id="icon80/international" stroke="none" stroke-width="1" fill="none" fill-rule="evenodd">
        <path d="M33.9222,61.4295 C35.2032,63.7945 36.7732,65.7275 38.5442,67.1305 C35.7602,66.2725 33.2052,64.8935 30.9872,63.1135 C31.8342,62.4945 32.8102,61.9245 33.9222,61.4295 Z M56.6488,61.4295 C57.7608,61.9245 58.7368,62.4945 59.5848,63.1135 C57.3658,64.8945 54.8108,66.2735 52.0268,67.1305 C53.7978,65.7275 55.3678,63.7945 56.6488,61.4295 Z M46.7826,59.2507 C49.2716,59.3647 51.6286,59.7577 53.7316,60.3687 C51.8786,63.6227 49.4506,65.8487 46.7826,66.4637 L46.7826,66.4637 Z M43.7826,59.2507 L43.7826,66.4627 C41.1166,65.8447 38.6916,63.6207 36.8396,60.3687 C38.9406,59.7587 41.2956,59.3647 43.7826,59.2507 L43.7826,59.2507 Z M30.2513,46.786 C30.4103,51.203 31.2663,55.266 32.6473,58.705 C31.1643,59.375 29.8503,60.163 28.7393,61.046 C25.1543,57.283 22.8413,52.303 22.4823,46.786 L22.4823,46.786 Z M68.0887,46.786 C67.7307,52.304 65.4167,57.284 61.8317,61.046 C60.7207,60.163 59.4067,59.376 57.9237,58.705 C59.3047,55.266 60.1607,51.203 60.3197,46.786 L60.3197,46.786 Z M43.7821,46.7861 L43.7821,56.2541 C40.7891,56.3751 37.9881,56.8451 35.5101,57.6141 C34.2371,54.4931 33.4221,50.7711 33.2571,46.7861 L33.2571,46.7861 L43.7821,46.7861 Z M57.3136,46.7858 C57.1486,50.7718 56.3346,54.4928 55.0606,57.6138 C52.5816,56.8448 49.7776,56.3748 46.7826,56.2538 L46.7826,56.2538 L46.7826,46.7858 Z M28.7408,29.5251 C29.8498,30.4081 31.1648,31.1961 32.6478,31.8661 C31.2658,35.3051 30.4108,39.3691 30.2518,43.7861 L30.2518,43.7861 L22.4828,43.7861 C22.8398,38.2681 25.1548,33.2881 28.7408,29.5251 Z M61.8317,29.525 C65.4167,33.288 67.7307,38.268 68.0887,43.786 L68.0887,43.786 L60.3197,43.786 C60.1607,39.369 59.3047,35.306 57.9237,31.866 C59.4067,31.196 60.7207,30.408 61.8317,29.525 Z M55.0596,32.9572 C56.3346,36.0792 57.1486,39.8002 57.3136,43.7862 L57.3136,43.7862 L46.7826,43.7862 L46.7826,34.3172 C49.7776,34.1962 52.5816,33.7262 55.0596,32.9572 Z M35.5112,32.957 C37.9872,33.725 40.7892,34.196 43.7822,34.317 L43.7822,34.317 L43.7822,43.786 L33.2572,43.786 L33.290677,43.1243263 C33.5140673,39.3892963 34.3070333,35.9055556 35.5112,32.957 Z M19.0795,10.9999 C23.5425,10.9999 27.1595,14.6169 27.1595,19.0799 C27.1595,22.9649 21.0365,31.8499 19.4505,34.0839 C19.2675,34.3419 18.8915,34.3419 18.7095,34.0839 C17.1235,31.8499 11.0005,22.9649 11.0005,19.0799 C11.0005,14.6169 14.6175,10.9999 19.0795,10.9999 Z M43.7822,24.108 L43.7822,31.32 C41.2952,31.206 38.9412,30.812 36.8392,30.202 C38.6922,26.95 41.1162,24.726 43.7822,24.108 L43.7822,24.108 Z M46.7826,24.1073 C49.4506,24.7223 51.8786,26.9483 53.7316,30.2023 C51.6286,30.8133 49.2716,31.2063 46.7826,31.3203 L46.7826,31.3203 Z M38.5432,23.4405 C36.7732,24.8445 35.2032,26.7775 33.9222,29.1415 C32.8112,28.6465 31.8342,28.0765 30.9872,27.4585 C33.2052,25.6775 35.7602,24.2985 38.5432,23.4405 Z M52.0268,23.4405 C54.8108,24.2985 57.3658,25.6775 59.5838,27.4575 C58.7368,28.0765 57.7598,28.6465 56.6488,29.1415 C55.3678,26.7765 53.7978,24.8445 52.0268,23.4405 Z M19.0795,14.331 C16.4345,14.331 14.2905,16.474 14.2905,19.12 C14.2905,21.766 16.4345,23.909 19.0795,23.909 C21.7245,23.909 23.8695,21.766 23.8695,19.12 C23.8695,16.474 21.7245,14.331 19.0795,14.331 Z" id="Combined-Shape" fill="#FF6200"></path>
    </g>
</svg>