<?xml version="1.0" encoding="UTF-8"?>
<svg width="80px" height="80px" viewBox="0 0 80 80" version="1.1" xmlns="http://www.w3.org/2000/svg" xmlns:xlink="http://www.w3.org/1999/xlink">
    <title>icon80/target</title>
    <g id="icon80/target" stroke="none" stroke-width="1" fill="none" fill-rule="evenodd">
        <path d="M39.0009955,18 C45.039618,18 50.5350429,20.3276546 54.6387777,24.1348811 L38.4447466,40.1658355 L38.3411984,40.2792329 C37.857681,40.8659427 37.8875851,41.7351684 38.4339605,42.2871284 C38.9803358,42.8390884 39.8492125,42.8778303 40.4408089,42.4003042 L40.5552534,42.2979145 L56.7021716,26.3147051 C60.0106069,30.2984737 62,35.4170804 62,41.0004977 C62,46.9517367 59.7395065,52.3750424 56.0304636,56.45876 C56.1815562,56.5125774 56.3253777,56.5936091 56.4555378,56.6997696 L56.5694602,56.8027398 L64.7534602,64.9867398 C65.3392466,65.5725263 65.3392466,66.5222737 64.7534602,67.1080602 C64.2042854,67.657235 63.335223,67.6915584 62.7460622,67.2110304 L62.6321398,67.1080602 L54.4481398,58.9240602 C54.2821848,58.7581052 54.1632454,58.5629384 54.0913214,58.3551115 C50.0544515,61.8710364 44.7761384,64 39.0009955,64 C33.2931105,64 28.0708003,61.9209877 24.0501195,58.4789431 C23.9993565,58.5958357 23.9311435,58.7072545 23.8472304,58.8101378 L23.7442602,58.9240602 L15.5602602,67.1080602 C14.9744737,67.6938466 14.0247263,67.6938466 13.4389398,67.1080602 C12.889765,66.5588854 12.8554416,65.689823 13.3359696,65.1006622 L13.4389398,64.9867398 L21.6229398,56.8027398 C21.7432353,56.6824444 21.8788795,56.5868525 22.0235686,56.5159641 C18.2823066,52.4272376 16,46.9803815 16,41.0004977 C16,28.2972148 26.2979874,18 39.0009955,18 Z M39.5004863,25.5 C30.6625871,25.5 23.5,32.6629189 23.5,41.5004863 C23.5,50.337247 30.662753,57.5 39.5004863,57.5 C48.3367607,57.5 55.5,50.3367607 55.5,41.5004863 C55.5,38.7567566 54.8073723,36.117195 53.5192168,33.78276 L53.5192168,33.78276 L51.2855297,36.0044237 C52.0784246,37.7012603 52.5,39.5673676 52.5,41.5004863 C52.5,48.6799065 46.6799065,54.5 39.5004863,54.5 C32.3196072,54.5 26.5,48.6803928 26.5,41.5004863 C26.5,34.319742 32.3194724,28.5 39.5004863,28.5 C41.392496,28.5 43.2223403,28.9045359 44.8925608,29.6672345 L44.8925608,29.6672345 L47.1363303,27.4367549 C44.8204582,26.1762452 42.2095825,25.5 39.5004863,25.5 Z M39.5005162,33.5 C35.0818241,33.5 31.5,37.0814312 31.5,41.5005162 C31.5,45.9187653 35.0820206,49.5 39.5005162,49.5 C43.9188886,49.5 47.5,45.9188886 47.5,41.5005162 C47.5,40.9650786 47.4474907,40.4367795 47.3442709,39.9213942 L47.3442709,39.9213942 L44.2822759,42.9646157 C43.656473,45.0115813 41.7525958,46.5 39.5005162,46.5 C36.7387275,46.5 34.5,44.2617637 34.5,41.5005162 C34.5,39.3835153 35.814991,37.5742013 37.6727235,36.8444921 L37.6727235,36.8444921 L40.9117981,33.6241123 C40.449725,33.541874 39.9778062,33.5 39.5005162,33.5 Z M62.1630507,16.0657269 L62.4048491,16.6571255 C62.5791454,17.0832952 62.9166557,17.4208055 63.3428254,17.5951019 L63.9342241,17.8369003 C65.0676541,18.3013547 65.3638572,19.7702801 64.4974129,20.6367244 L61.6784463,23.4556909 C61.3631009,23.7700289 60.9369312,23.9503702 60.4916191,23.9574226 L57.7421697,23.9997374 C56.7739685,24.0148498 55.9851012,23.2259824 56.0002136,22.2577813 L56.0425283,19.5083318 C56.0495807,19.0630197 56.2299221,18.63685 56.54426,18.3215046 L59.3632265,15.5025381 C60.2296708,14.6360938 61.6985962,14.9322968 62.1630507,16.0657269 Z" id="Combined-Shape" fill="#FF6200"></path>
    </g>
</svg>